<svg width="16" height="17" viewBox="0 0 16 17" fill="none" xmlns="http://www.w3.org/2000/svg">
    <path fill-rule="evenodd" clip-rule="evenodd" d="M1.3 8.583C1.3 4.71 4.286 1.5 8.05 1.5c3.766 0 6.75 3.21 6.75 7.083 0 3.874-2.984 7.084-6.75 7.084-3.765 0-6.75-3.21-6.75-7.084zm1.547-.75c.3-2.383 2.006-4.258 4.16-4.722-.763 1.148-1.7 2.884-1.912 4.723H2.847zm0 1.5c.3 2.384 2.006 4.258 4.16 4.723-.763-1.149-1.7-2.884-1.912-4.722H2.847zm3.76 0c.165 1.124.667 2.262 1.237 3.233.07.118.138.231.207.34.068-.109.137-.222.206-.34.57-.971 1.072-2.11 1.237-3.232H6.608zm4.4 0c-.213 1.84-1.15 3.574-1.913 4.723 2.155-.465 3.86-2.339 4.16-4.722h-2.247zm2.247-1.5h-2.247c-.213-1.838-1.15-3.574-1.913-4.722 2.155.465 3.861 2.339 4.16 4.723zm-3.76 0H6.608c.164-1.123.666-2.261 1.236-3.233.07-.117.138-.23.207-.34.068.11.137.223.206.34.57.972 1.072 2.11 1.237 3.234z" fill="#1B1E23"/>
</svg>
